<svg id="visual" viewBox="0 0 960 540" width="960" height="540" xmlns="http://www.w3.org/2000/svg" xmlns:xlink="http://www.w3.org/1999/xlink" version="1.1"><rect x="0" y="0" width="960" height="540" fill="#001220"></rect><path d="M0 380L22.8 383C45.7 386 91.3 392 137 385C182.7 378 228.3 358 274 349.7C319.7 341.3 365.3 344.7 411.2 354.8C457 365 503 382 548.8 382.2C594.7 382.3 640.3 365.7 686 354.3C731.7 343 777.3 337 823 341C868.7 345 914.3 359 937.2 366L960 373L960 541L937.2 541C914.3 541 868.7 541 823 541C777.3 541 731.7 541 686 541C640.3 541 594.7 541 548.8 541C503 541 457 541 411.2 541C365.3 541 319.7 541 274 541C228.3 541 182.7 541 137 541C91.3 541 45.7 541 22.8 541L0 541Z" fill="#fa7268"></path><path d="M0 408L22.8 408.5C45.7 409 91.3 410 137 405.2C182.7 400.3 228.3 389.7 274 384.2C319.7 378.7 365.3 378.3 411.2 376.2C457 374 503 370 548.8 370.8C594.7 371.7 640.3 377.3 686 384.3C731.7 391.3 777.3 399.7 823 394.8C868.7 390 914.3 372 937.2 363L960 354L960 541L937.2 541C914.3 541 868.7 541 823 541C777.3 541 731.7 541 686 541C640.3 541 594.7 541 548.8 541C503 541 457 541 411.2 541C365.3 541 319.7 541 274 541C228.3 541 182.7 541 137 541C91.3 541 45.7 541 22.8 541L0 541Z" fill="#ef5f67"></path><path d="M0 460L22.8 449C45.7 438 91.3 416 137 405.8C182.7 395.7 228.3 397.3 274 407.5C319.7 417.7 365.3 436.3 411.2 436.8C457 437.3 503 419.7 548.8 412.3C594.7 405 640.3 408 686 406.5C731.7 405 777.3 399 823 403C868.7 407 914.3 421 937.2 428L960 435L960 541L937.2 541C914.3 541 868.7 541 823 541C777.3 541 731.7 541 686 541C640.3 541 594.7 541 548.8 541C503 541 457 541 411.2 541C365.3 541 319.7 541 274 541C228.3 541 182.7 541 137 541C91.3 541 45.7 541 22.8 541L0 541Z" fill="#e34c67"></path><path d="M0 442L22.8 444.3C45.7 446.7 91.3 451.3 137 456.3C182.7 461.3 228.3 466.7 274 472C319.7 477.3 365.3 482.7 411.2 485.2C457 487.7 503 487.3 548.8 478.5C594.7 469.7 640.3 452.3 686 449.5C731.7 446.7 777.3 458.3 823 462.8C868.7 467.3 914.3 464.7 937.2 463.3L960 462L960 541L937.2 541C914.3 541 868.7 541 823 541C777.3 541 731.7 541 686 541C640.3 541 594.7 541 548.8 541C503 541 457 541 411.2 541C365.3 541 319.7 541 274 541C228.3 541 182.7 541 137 541C91.3 541 45.7 541 22.8 541L0 541Z" fill="#d53867"></path><path d="M0 478L22.8 478.3C45.7 478.7 91.3 479.3 137 479.5C182.7 479.7 228.3 479.3 274 483.5C319.7 487.7 365.3 496.3 411.2 495.8C457 495.3 503 485.7 548.8 485C594.7 484.3 640.3 492.7 686 498.7C731.7 504.7 777.3 508.3 823 509C868.7 509.7 914.3 507.3 937.2 506.2L960 505L960 541L937.2 541C914.3 541 868.7 541 823 541C777.3 541 731.7 541 686 541C640.3 541 594.7 541 548.8 541C503 541 457 541 411.2 541C365.3 541 319.7 541 274 541C228.3 541 182.7 541 137 541C91.3 541 45.7 541 22.8 541L0 541Z" fill="#c62368"></path></svg>